{"title":"Ecstasy 2011 XViD HDRip - DTRG - SAFCuk009","uid":6471740,"size":1065070744,"categoryP":"video","categoryS":"movies","magnet":"?xt=urn:btih:88e6c0e9dbbde5565fb1c7f056b04f15dc082a67&amp;dn=Ecstasy+2011+XViD+HDRip+-+DTRG+-+SAFCuk009&amp;tr=udp%3A%2F%2Ftracker.openbittorrent.com%3A80&amp;tr=udp%3A%2F%2Fopen.demonii.com%3A1337&amp;tr=udp%3A%2F%2Ftracker.coppersurfer.tk%3A6969&amp;tr=udp%3A%2F%2Fexodus.desync.com%3A6969","seeders":0,"leechers":1,"uploader":"SAFCukO09","files":3,"time":1308164453,"description":"Format : AVI\nFormat/Info : Audio Video Interleave\nFile size : 1 016 MiB\nDuration : 1h 35mn\nOverall bit rate : 1 480 Kbps\nWriting library : VirtualDub build 32839/release\n\nVideo\nID : 0\nFormat : MPEG-4 Visual\nFormat profile : Advanced Simple@L5\nFormat settings, BVOP : 2\nFormat settings, QPel : No\nFormat settings, GMC : No warppoints\nFormat settings, Matrix : Default (H.263)\nMuxing mode : Packed bitstream\nCodec ID : XVID\nCodec ID/Hint : XviD\nDuration : 1h 35mn\nBit rate : 1 247 Kbps\nWidth : 720 pixels\nHeight : 304 pixels\nDisplay aspect ratio : 2.35:1\nFrame rate : 23.976 fps\nColor space : YUV\nChroma subsampling : 4:2:0\nBit depth : 8 bits\nScan type : Progressive\nCompression mode : Lossy\nBits/(Pixel*Frame) : 0.238\nStream size : 856 MiB (84%)\nWriting library : XviD 63\n\nAudio\nID : 1\nFormat : MPEG Audio\nFormat version : Version 1\nFormat profile : Layer 3\nMode : Joint stereo\nMode extension : MS Stereo\nCodec ID : 55\nCodec ID/Hint : MP3\nDuration : 1h 35mn\nBit rate mode : Constant\nBit rate : 224 Kbps\nChannel(s) : 2 channels\nSampling rate : 44.1 KHz\nCompression mode : Lossy\nStream size : 154 MiB (15%)\nAlignment : Split accross interleaves\nInterleave, duration : 42 ms (1.00 video frame)\nInterleave, preload duration : 500 ms\nWriting library : LAME3.98.2\n\n\n\n &lt;a href=&quot;\nhttp://www.imdb.com/title/tt1552221/&quot; rel=&quot;nofollow&quot; target=&quot;_NEW&quot;&gt;\nhttp://www.imdb.com/title/tt1552221/&lt;/a&gt;\n\n\n\n\n\n\n\n\nMOVIEmeter\nSEE RANK\nUp 9,199 this week\nView rank on IMDbPro Ã‚Â»\nEcstasy (2011)\nDrama | Thriller - 2011 (USA)\nNot yet released\n(voting begins after release)\n\nA single church-going mother desperately tries to save her two daughters from walking down the same dark path she was once on; and a young woman fights against addiction to a mysterious party drug.\nDirector:\nLux\nWriters:\nLux, Ryan M. Andrews (additional writing), and 1 more credit Ã‚Â»\nStars:\nCharlie Bewley, Christy Andersen and Elisa King\n\n\n\n\n\n\n\n\n\n\n\n\n\n\n\n\nSource Used\n\n\nEcstasy (2011) HDRip x264-BBnRG ETC ........... Thanks\n\n\n\nStraight forward conversion to xvid with a few filters thrown in to liven it up\n\nEnjoy !\n\n\n\nGreetz to IMAGiNE,Flawl3ss,DiLLoN,BDK,NOiR,TOXiC,THC,Ez,Rx,Boobyblue,TaRiQ786,LKRG,EP1C\n","torrent":{"xt":"urn:btih:88e6c0e9dbbde5565fb1c7f056b04f15dc082a67","amp;dn":"Ecstasy+2011+XViD+HDRip+-+DTRG+-+SAFCuk009","amp;tr":["udp%3A%2F%2Ftracker.openbittorrent.com%3A80","udp%3A%2F%2Fopen.demonii.com%3A1337","udp%3A%2F%2Ftracker.coppersurfer.tk%3A6969","udp%3A%2F%2Fexodus.desync.com%3A6969"],"infoHash":"88e6c0e9dbbde5565fb1c7f056b04f15dc082a67","infoHashBuffer":{"type":"Buffer","data":[136,230,192,233,219,189,229,86,95,177,199,240,86,176,79,21,220,8,42,103]},"announce":[],"urlList":[]}}